<svg width="22" height="22" viewBox="0 0 22 22" fill="none" xmlns="http://www.w3.org/2000/svg">
<g id="Group 5">
<path id="google" fill-rule="evenodd" clip-rule="evenodd" d="M21.2768 11.2387C21.2768 10.4941 21.21 9.7782 21.0859 9.09093H11.1967V13.1525H16.8477C16.6043 14.465 15.8645 15.5771 14.7524 16.3216V18.9562H18.1459C20.1313 17.1282 21.2768 14.4364 21.2768 11.2387Z" fill="#4285F4"/>
<path id="google_2" fill-rule="evenodd" clip-rule="evenodd" d="M11.1963 21.5C14.0313 21.5 16.4082 20.5597 18.1454 18.9561L14.752 16.3215C13.8118 16.9515 12.6091 17.3238 11.1963 17.3238C8.46156 17.3238 6.14679 15.4768 5.3211 12.9949H1.81314V15.7154C3.54087 19.147 7.09179 21.5 11.1963 21.5Z" fill="#34A853"/>
<path id="google_3" fill-rule="evenodd" clip-rule="evenodd" d="M5.32153 12.995C5.11153 12.365 4.99221 11.692 4.99221 10.9999C4.99221 10.3079 5.11153 9.63495 5.32153 9.00495V6.28448H1.81357C1.10243 7.70199 0.696747 9.30563 0.696747 10.9999C0.696747 12.6943 1.10243 14.2979 1.81357 15.7154L5.32153 12.995Z" fill="#FBBC05"/>
<path id="google_4" fill-rule="evenodd" clip-rule="evenodd" d="M11.1963 4.67615C12.7379 4.67615 14.122 5.20592 15.2102 6.24638L18.2218 3.23478C16.4034 1.54046 14.0266 0.5 11.1963 0.5C7.09179 0.5 3.54087 2.85296 1.81314 6.28456L5.3211 9.00502C6.14679 6.52319 8.46156 4.67615 11.1963 4.67615Z" fill="#EA4335"/>
</g>
</svg>
